# xmcd
# 
# Track frame offsets:
#     150
#     26092
#     44302
#     59715
#     83297
#     108702
#     135357
#     153180
#     174802
# 
# Disc length: 2653
# 
# Revision: 3
# Processed by: cddbd v1.5.2PL0 Copyright (c) Steve Scherf et al.
# Submitted via: fre:ac v1.0.31
# 
DISCID=660a5b09
DTITLE=Aya Ueto - UETOAYAMIX
DYEAR=2005
DGENRE=Techno
TTITLE0=あふれそうな愛、抱いて−DJ TASAKA−
TTITLE1=愛のために。−Cloudberry Jam−
TTITLE2=風−Home Grown−
TTITLE3=Hello−Reggae Disco Rockers−
TTITLE4=ウソツキ−Jazztronik−
TTITLE5=MESSAGE−Incognito−
TTITLE6=微熱−DJ Watarai−
TTITLE7=あの人に会いたい−Towa Tei−
TTITLE8=愛のために。−KREVA−
EXTD=YEAR: 2005
EXTT0=
EXTT1=
EXTT2=
EXTT3=
EXTT4=
EXTT5=
EXTT6=
EXTT7=
EXTT8=
PLAYORDER=
